<svg width="33" height="49" viewBox="0 0 33 49" fill="none" xmlns="http://www.w3.org/2000/svg">
<path fill-rule="evenodd" clip-rule="evenodd" d="M0.398478 25.0839C0.880325 28.7438 2.17437 31.7666 4.28062 34.1521C7.02674 37.2452 10.7838 38.8974 15.5518 39.1087C15.6121 40.3761 15.846 41.5606 16.2534 42.662C16.6759 43.7635 17.302 44.7141 18.1319 45.5138C18.9618 46.3286 19.9953 46.9547 21.2326 47.3923C22.485 47.845 24.0014 48.0713 25.7818 48.0713C27.7282 48.0713 29.1541 48.0185 30.0594 47.9129C30.9798 47.8072 31.8927 47.6413 32.798 47.4149V41.3946H31.9606C31.6286 41.5757 31.0779 41.7643 30.3084 41.9604C29.5539 42.1717 28.8372 42.2773 28.1583 42.2773C26.3929 42.2773 25.1556 41.9604 24.4465 41.3267C23.7524 40.7081 23.3903 39.5764 23.3601 37.9318C26.3778 36.7398 28.709 34.7255 30.3536 31.8888C31.5535 29.8273 32.3196 27.474 32.6521 24.8291C29.6528 24.01 26.819 23.4178 24.0753 23.0425C24.0053 24.522 23.8198 25.7658 23.5185 26.7738C23.1262 28.0714 22.5679 29.2106 21.8437 30.1914C21.1647 31.0967 20.3575 31.7681 19.422 32.2057C18.4865 32.6282 17.5208 32.8394 16.525 32.8394C15.5442 32.8394 14.5936 32.6432 13.6732 32.2509C12.7528 31.8435 11.9305 31.1721 11.2063 30.2366C10.4971 29.3162 9.93883 28.177 9.53144 26.8191C9.22809 25.7967 9.03768 24.5819 8.96021 23.1746C6.20105 23.5984 3.37419 24.2361 0.398478 25.0839ZM24.0685 20.2076C23.99 18.8074 23.7916 17.5786 23.4733 16.5211C23.0659 15.1028 22.5151 13.941 21.8211 13.0357C21.0968 12.1153 20.2745 11.4589 19.3541 11.0666C18.4488 10.6592 17.5057 10.4555 16.525 10.4555C15.4839 10.4555 14.5408 10.6441 13.6959 11.0213C12.8509 11.3835 12.0361 12.0398 11.2515 12.9904C10.5575 13.8655 9.99164 15.0274 9.55407 16.4759C9.2275 17.5955 9.02715 18.882 8.95301 20.3352C6.10326 20.7525 3.20698 21.3857 0.189472 22.2243C0.185879 22.0372 0.184082 21.8487 0.184082 21.6588C0.184082 16.242 1.63258 11.9644 4.52958 8.82596C7.42659 5.67246 11.4175 4.0957 16.5023 4.0957C21.5721 4.0957 25.563 5.66491 28.4751 8.80333C31.3872 11.9267 32.8433 16.2118 32.8433 21.6588C32.8433 21.7631 32.8427 21.8671 32.8415 21.9707C29.8001 21.1622 26.8991 20.5757 24.0685 20.2076Z" fill="#E99006"/>
<path d="M8.96236 20.6236L0.183519 22.3794C0.0808662 18.8307 0.632253 15.6397 1.73796 12.8495C6.56472 0.669121 26.5992 0.232652 31.2679 12.4744C32.445 15.5608 32.9069 18.9652 32.8408 22.3794L24.062 20.6236L23.4535 18.0681C22.7672 15.1858 20.3249 13.0583 17.3757 12.7737C16.9182 12.7296 16.4552 12.7313 15.998 12.7783C13.2204 13.0642 10.853 14.9519 9.96998 17.6008L8.96236 20.6236Z" fill="#2F8DAD"/>
</svg>
